<svg width="8" height="9" viewBox="0 0 8 9" fill="none" xmlns="http://www.w3.org/2000/svg">
<path fill-rule="evenodd" clip-rule="evenodd" d="M4.11723 7.06815C4.04224 6.98376 4.00012 6.86932 4.00012 6.75C4.00012 6.63068 4.04224 6.51624 4.11723 6.43185L5.83443 4.5L4.11723 2.56815C4.07903 2.52664 4.04856 2.47699 4.02759 2.42208C4.00663 2.36718 3.99559 2.30813 3.99513 2.24838C3.99467 2.18863 4.00479 2.12938 4.0249 2.07407C4.04502 2.01877 4.07472 1.96853 4.11227 1.92627C4.14983 1.88402 4.19449 1.85061 4.24365 1.82798C4.29281 1.80536 4.34548 1.79397 4.39859 1.79449C4.4517 1.79501 4.50419 1.80742 4.55299 1.83101C4.6018 1.85459 4.64593 1.88887 4.68283 1.93185L6.68283 4.18185C6.75782 4.26624 6.79995 4.38068 6.79995 4.5C6.79995 4.61932 6.75782 4.73376 6.68283 4.81815L4.68283 7.06815C4.60782 7.15251 4.5061 7.1999 4.40003 7.1999C4.29397 7.1999 4.19224 7.15251 4.11723 7.06815Z" fill="#181818" fill-opacity="0.7"/>
<path fill-rule="evenodd" clip-rule="evenodd" d="M1.71721 7.06815C1.64222 6.98376 1.6001 6.86932 1.6001 6.75C1.6001 6.63067 1.64222 6.51623 1.71721 6.43185L3.43441 4.5L1.71721 2.56815C1.64435 2.48328 1.60403 2.36961 1.60494 2.25162C1.60585 2.13363 1.64792 2.02076 1.72208 1.93733C1.79625 1.8539 1.89657 1.80657 2.00145 1.80554C2.10633 1.80452 2.20737 1.84988 2.28281 1.93185L4.28281 4.18185C4.3578 4.26623 4.39993 4.38067 4.39993 4.5C4.39993 4.61932 4.3578 4.73376 4.28281 4.81815L2.28281 7.06815C2.2078 7.15251 2.10608 7.1999 2.00001 7.1999C1.89395 7.1999 1.79222 7.15251 1.71721 7.06815Z" fill="#181818" fill-opacity="0.7"/>
</svg>
